<?xml version="1.0" encoding="UTF-8"?>
<svg version="1.1" xmlns="http://www.w3.org/2000/svg" width="612" height="612">
<path d="M0 0 C201.96 0 403.92 0 612 0 C612 201.96 612 403.92 612 612 C410.04 612 208.08 612 0 612 C0 410.04 0 208.08 0 0 Z " fill="#FEFEFE" transform="translate(0,0)"/>
<path d="M0 0 C3.65144852 1.82654393 7.26703225 3.71424235 10.875 5.625 C12.54519619 6.49551484 14.21575748 7.36532964 15.88671875 8.234375 C19.05962719 9.8923661 22.22368045 11.56592458 25.3828125 13.25 C30.76048012 16.10825455 36.20286613 18.82851704 41.65930176 21.53237915 C45.46271268 23.41877469 49.26079819 25.31571128 53.05712891 27.21630859 C59.29998387 30.33968014 65.5462058 33.45623906 71.79443359 36.56884766 C80.48942701 40.90035545 89.18264612 45.2354063 97.87460899 49.57299232 C103.09781099 52.17935465 108.32176273 54.78419175 113.54736328 57.38574219 C118.65096819 59.92663903 123.75257917 62.47149883 128.85286331 65.01905441 C130.7809008 65.98123858 132.7096368 66.94202448 134.63911057 67.90132523 C161.82547681 81.4208162 161.82547681 81.4208162 163.875 86.625 C164.4713461 90.95431783 164.36097728 94.58677581 162.5 98.5625 C160.875 100.625 160.875 100.625 158.875 102.625 C157.885 102.625 156.895 102.625 155.875 102.625 C155.875 128.035 155.875 153.445 155.875 179.625 C157.195 180.285 158.515 180.945 159.875 181.625 C163.17770837 185.39952385 164.99474247 187.73186438 165.02026367 192.73583984 C165.02983345 194.0075856 165.02983345 194.0075856 165.03959656 195.30502319 C165.04126579 196.68157578 165.04126579 196.68157578 165.04296875 198.0859375 C165.04629715 199.02805084 165.04962555 199.97016418 165.05305481 200.94082642 C165.05812343 202.93645743 165.06046316 204.93209693 165.06030273 206.92773438 C165.06248613 209.98061115 165.08063403 213.03312486 165.09960938 216.0859375 C165.10254392 218.02343626 165.10452831 219.96093674 165.10546875 221.8984375 C165.11265427 222.81209076 165.11983978 223.72574402 165.12724304 224.66708374 C165.12416641 225.52121857 165.12108978 226.37535339 165.11791992 227.25537109 C165.11934494 228.00434662 165.12076996 228.75332214 165.12223816 229.5249939 C164.83598433 231.95639357 164.1618267 233.55020359 162.875 235.625 C158.75563887 237.68468056 153.46506324 236.89822097 148.9375 236.9375 C147.82697266 236.96650391 146.71644531 236.99550781 145.57226562 237.02539062 C144.50814453 237.03376953 143.44402344 237.04214844 142.34765625 237.05078125 C140.88211304 237.07265503 140.88211304 237.07265503 139.38696289 237.0949707 C136.875 236.625 136.875 236.625 135.24325562 234.87623596 C133.71599045 232.36337637 133.4913012 231.04516484 133.47094727 228.13525391 C133.45192101 226.81335556 133.45192101 226.81335556 133.43251038 225.4647522 C133.43691383 224.0474733 133.43691383 224.0474733 133.44140625 222.6015625 C133.4361644 221.62263031 133.43092255 220.64369812 133.42552185 219.63510132 C133.41910296 217.56566312 133.42043692 215.49618843 133.42895508 213.42675781 C133.43745101 210.26821474 133.40872394 207.11148879 133.37695312 203.953125 C133.37534059 201.94010471 133.37591964 199.92708122 133.37890625 197.9140625 C133.36767227 196.97325836 133.35643829 196.03245422 133.34486389 195.06314087 C133.40420064 189.44905041 133.97582408 185.98620832 137.875 181.625 C139.195 180.965 140.515 180.305 141.875 179.625 C141.875 157.185 141.875 134.745 141.875 111.625 C123.16091488 120.55508001 123.16091488 120.55508001 104.78515625 130.04296875 C100.8653351 132.12914197 96.90048691 134.11862273 92.92456055 136.0949707 C86.47222006 139.31183798 80.04126182 142.56899689 73.62011719 145.84765625 C64.56124594 150.47308716 55.49176474 155.07711476 46.41440964 159.66616821 C40.95726334 162.42618471 35.50503024 165.19514468 30.0625 167.98388672 C24.75076813 170.70512047 19.42752138 173.40246983 14.0956192 176.08395386 C12.08046137 177.10255397 10.06952069 178.12954509 8.06313324 179.16531372 C-12.53413559 189.78559549 -12.53413559 189.78559549 -22.125 187.625 C-25.82974082 186.38581267 -29.17500018 184.82801769 -32.625 183 C-33.59131348 182.51289551 -34.55762695 182.02579102 -35.55322266 181.52392578 C-37.64357372 180.46831009 -39.72889326 179.40268308 -41.80957031 178.328125 C-45.27099245 176.55000417 -48.75259142 174.81560875 -52.2421875 173.09375 C-63.02835524 167.76277667 -73.7704343 162.35692957 -84.37817383 156.67749023 C-90.14241213 153.59469662 -95.97358037 150.65943474 -101.83041382 147.75720215 C-105.75995203 145.80812142 -109.68293583 143.8461806 -113.60473633 141.8815918 C-119.77010582 138.79605367 -125.94473687 135.72979728 -132.12603474 132.67631054 C-138.01387999 129.76768727 -143.89699823 126.8496142 -149.77833843 123.92786121 C-153.70764233 121.97635094 -157.63878278 120.02872478 -161.57397461 118.08911133 C-165.42880976 116.1888928 -169.2786486 114.27888696 -173.12525368 112.36206627 C-174.57909261 111.63974013 -176.03467767 110.92091676 -177.49207115 110.20578957 C-179.52253032 109.20877018 -181.54633529 108.19930277 -183.5690918 107.18676758 C-184.71774216 106.61799393 -185.86639252 106.04922028 -187.04985046 105.46321106 C-191.41066967 102.85647405 -195.47545095 99.57364715 -197.125 94.625 C-197.65306901 89.76676508 -196.87785091 86.66824977 -194.125 82.625 C-188.29030517 78.17373257 -181.36972813 75.14873086 -174.8125 71.9375 C-167.20006829 68.17318744 -159.62490535 64.35908083 -152.125 60.375 C-144.49890163 56.32867817 -136.8131872 52.42312234 -129.07666016 48.59277344 C-126.50860941 47.31934922 -123.94491434 46.03730377 -121.3815918 44.75439453 C-117.96324711 43.04355795 -114.54405531 41.33441589 -111.125 39.625 C-109.89713341 39.01107171 -108.66926877 38.39713955 -107.44140625 37.78320312 C-73.8359375 20.98046875 -73.8359375 20.98046875 -71.69538879 19.91026306 C-70.2783945 19.2017203 -68.86147299 18.49303194 -67.44462585 17.78419495 C-63.91897452 16.02056611 -60.39206848 14.25953802 -56.86254883 12.50366211 C-48.63318678 8.40644244 -40.46868684 4.21164452 -32.36132812 -0.12304688 C-31.58595703 -0.53490234 -30.81058594 -0.94675781 -30.01171875 -1.37109375 C-29.33326904 -1.73388428 -28.65481934 -2.0966748 -27.95581055 -2.47045898 C-18.14131631 -7.31946567 -9.20394812 -4.49299433 0 0 Z " fill="#121212" transform="translate(322.125,169.375)"/>
<path d="M0 0 C0.11626848 9.47559092 0.20490389 18.95093322 0.25906086 28.42708397 C0.28506437 32.82811197 0.32029107 37.22864901 0.37719727 41.62939453 C0.43185014 45.88289789 0.46148994 50.13593146 0.47438622 54.38975906 C0.48356685 56.00598157 0.50149374 57.62218073 0.52865028 59.23820114 C0.74962515 72.94309904 -1.96841408 81.46283624 -11.55859375 91.55859375 C-30.22744115 110.22744115 -52.79439668 119.81082214 -78.1875 125.75 C-79.07767822 125.96092285 -79.96785645 126.1718457 -80.88500977 126.38916016 C-120.58254082 135.27889844 -169.10952047 129.32822056 -203.7109375 107.7421875 C-210.61604252 103.22549882 -217.35051682 98.03206669 -223 92 C-223 91.34 -223 90.68 -223 90 C-223.99 89.67 -224.98 89.34 -226 89 C-227.7890625 86.6015625 -227.7890625 86.6015625 -229.625 83.625 C-230.23601562 82.64789063 -230.84703125 81.67078125 -231.4765625 80.6640625 C-234.01710871 76.22136374 -234.12211053 72.92310311 -234.11352539 67.86645508 C-234.11367142 67.14425278 -234.11381744 66.42205048 -234.1139679 65.67796326 C-234.11327145 63.29178866 -234.1054916 60.90569221 -234.09765625 58.51953125 C-234.09579112 56.8647211 -234.09436766 55.20991039 -234.09336853 53.55509949 C-234.08955085 49.20018997 -234.07972695 44.84531382 -234.06866455 40.49041748 C-234.05843433 36.04635062 -234.05386745 31.60227837 -234.04882812 27.15820312 C-234.03810402 18.43878677 -234.02103657 9.71939754 -234 1 C-229.55907613 1.77653696 -226.09273618 3.37339119 -222.1875 5.5625 C-217.08626608 8.39259633 -211.91544793 11.0613876 -206.69287109 13.66040039 C-205.2534867 14.37837701 -203.81419362 15.09653674 -202.37498474 15.81486511 C-201.28004857 16.36131211 -201.28004857 16.36131211 -200.16299248 16.91879845 C-196.85068583 18.5745005 -193.54310502 20.23953337 -190.23608398 21.90576172 C-183.90390846 25.09561797 -177.56923206 28.28045147 -171.23258877 31.46142387 C-167.43594155 33.36763146 -163.64047867 35.27612922 -159.84741211 37.18945312 C-156.12929498 39.06484168 -152.40825227 40.93430275 -148.6851368 42.79974747 C-147.28034951 43.50489481 -145.87661303 44.21213991 -144.47399712 44.92159653 C-142.51856651 45.91025226 -140.55946593 46.89124866 -138.59936523 47.87060547 C-137.49068588 48.42827606 -136.38200653 48.98594666 -135.23973083 49.56051636 C-126.03949609 53.64838294 -115.63714277 54.77265304 -105.85546875 52.16015625 C-102.80624669 50.92127944 -99.92160666 49.51585873 -97 48 C-95.75652504 47.38664625 -94.51165311 46.77611902 -93.265625 46.16796875 C-90.71464806 44.91472717 -88.17302513 43.64581246 -85.640625 42.35546875 C-75.97537896 37.43697429 -66.25531149 32.62562679 -56.55048561 27.78590298 C-51.45300293 25.24371601 -46.35621714 22.70013458 -41.25980186 20.15580845 C-37.93324437 18.4951578 -34.60630202 16.83528678 -31.27856445 15.17700195 C-28.01080476 13.54856149 -24.74403155 11.91815769 -21.47792625 10.28640175 C-20.24596305 9.67133819 -19.01365024 9.05697433 -17.78096962 8.44334984 C-16.06569134 7.58935254 -14.35178681 6.73259775 -12.63793945 5.87573242 C-11.66693802 5.39134201 -10.69593658 4.9069516 -9.69551086 4.40788269 C-7.85176249 3.44488103 -6.04376422 2.41107355 -4.27262878 1.32026672 C-2 0 -2 0 0 0 Z " fill="#131313" transform="translate(423,318)"/>
<path d="M0 0 C0.33 0 0.66 0 1 0 C1.04944549 6.05060637 1.08574129 12.10109505 1.10986328 18.15185547 C1.11991954 20.21014454 1.13356629 22.26841933 1.15087891 24.32666016 C1.17514354 27.28551763 1.18648688 30.24418617 1.1953125 33.203125 C1.20563507 34.12305237 1.21595764 35.04297974 1.22659302 35.99078369 C1.22674408 36.8513739 1.22689514 37.71196411 1.22705078 38.59863281 C1.231492 39.35364075 1.23593323 40.10864868 1.24050903 40.88653564 C0.96224246 43.331793 0.31076001 44.92388202 -1 47 C-3.125 47.75 -3.125 47.75 -5 48 C-5.495 46.515 -5.495 46.515 -6 45 C-5.35184326 44.47543213 -4.70368652 43.95086426 -4.03588867 43.41040039 C-1.38885716 40.27643444 -1.47663133 38.49907201 -1.42578125 34.43359375 C-1.39806641 33.14259766 -1.37035156 31.85160156 -1.34179688 30.52148438 C-1.33118832 29.16016256 -1.32142731 27.79883388 -1.3125 26.4375 C-1.27359293 23.7902113 -1.22434065 21.1432373 -1.17578125 18.49609375 C-1.15467285 17.22878418 -1.13356445 15.96147461 -1.11181641 14.65576172 C-0.96160643 9.74474813 -0.54424789 4.88160299 0 0 Z " fill="#363636" transform="translate(486,358)"/>
<path d="M0 0 C0.33 0.66 0.66 1.32 1 2 C0.67 2.66 0.34 3.32 0 4 C-2.97 3.505 -2.97 3.505 -6 3 C-6 3.66 -6 4.32 -6 5 C-7.26362492 5.55827609 -8.5362919 6.09612097 -9.8125 6.625 C-10.52019531 6.92664063 -11.22789062 7.22828125 -11.95703125 7.5390625 C-12.63121094 7.69117188 -13.30539062 7.84328125 -14 8 C-14.99 7.34 -15.98 6.68 -17 6 C-14.73495035 4.80015203 -12.46410112 3.61505231 -10.1875 2.4375 C-9.54490234 2.09525391 -8.90230469 1.75300781 -8.24023438 1.40039062 C-3.33984375 -1.11328125 -3.33984375 -1.11328125 0 0 Z M-15 8 C-14.67 8.66 -14.34 9.32 -14 10 C-14.99 9.67 -15.98 9.34 -17 9 C-16.34 8.67 -15.68 8.34 -15 8 Z " fill="#202020" transform="translate(387,338)"/>
<path d="M0 0 C3.3 0.99 6.6 1.98 10 3 C10.33 4.65 10.66 6.3 11 8 C6.71 6.02 2.42 4.04 -2 2 C-1.34 1.34 -0.68 0.68 0 0 Z " fill="#1D1D1D" transform="translate(283,346)"/>
<path d="M0 0 C0 2.31 0 4.62 0 7 C-2.31 6.67 -4.62 6.34 -7 6 C-7.33 5.01 -7.66 4.02 -8 3 C-3.375 0 -3.375 0 0 0 Z " fill="#202020" transform="translate(422,319)"/>
<path d="M0 0 C1.65 0 3.3 0 5 0 C4.67 0.99 4.34 1.98 4 3 C4.99 3.33 5.98 3.66 7 4 C7 4.99 7 5.98 7 7 C3.17902761 6.46930939 0.93828597 5.50298434 -2 3 C-1.34 2.34 -0.68 1.68 0 1 C0 0.67 0 0.34 0 0 Z " fill="#191919" transform="translate(192,298)"/>
<path d="M0 0 C5 2 5 2 10 4 C9.67 4.99 9.34 5.98 9 7 C6.03 6.01 3.06 5.02 0 4 C0 2.68 0 1.36 0 0 Z " fill="#1D1D1D" transform="translate(345,182)"/>
<path d="M0 0 C0.99 0.33 1.98 0.66 3 1 C3 1.66 3 2.32 3 3 C3.66 3.33 4.32 3.66 5 4 C4.67 5.32 4.34 6.64 4 8 C-0.67692308 6.52307692 -0.67692308 6.52307692 -2.3125 3.875 C-2.539375 3.25625 -2.76625 2.6375 -3 2 C-2.34 1.67 -1.68 1.34 -1 1 C-1 1.66 -1 2.32 -1 3 C-0.34 3 0.32 3 1 3 C0.67 2.01 0.34 1.02 0 0 Z " fill="#212121" transform="translate(130,265)"/>
<path d="M0 0 C0.99 0.33 1.98 0.66 3 1 C0.27521226 4.36591427 -3.06856792 5.44226276 -7 7 C-7 5.02 -7 3.04 -7 1 C-5.5459375 1.0309375 -5.5459375 1.0309375 -4.0625 1.0625 C-1.12534105 1.35618499 -1.12534105 1.35618499 0 0 Z " fill="#1A1A1A" transform="translate(384,426)"/>
<path d="M0 0 C-0.33 1.65 -0.66 3.3 -1 5 C-3.31 4.34 -5.62 3.68 -8 3 C-7.67 2.01 -7.34 1.02 -7 0 C-4.3333581 -1.33332095 -2.83319697 -0.67102033 0 0 Z " fill="#181818" transform="translate(216,210)"/>
<path d="M0 0 C0.33 0.66 0.66 1.32 1 2 C3.01669827 3.13350534 3.01669827 3.13350534 5 4 C4.67 4.66 4.34 5.32 4 6 C-1.75 4.25 -1.75 4.25 -4 2 C-2.68 1.34 -1.36 0.68 0 0 Z " fill="#252525" transform="translate(271,338)"/>
<path d="M0 0 C2.125 0.375 2.125 0.375 4 1 C3.67 1.99 3.34 2.98 3 4 C0.4375 5.1875 0.4375 5.1875 -2 6 C-2 2 -2 2 0 0 Z " fill="#1C1C1C" transform="translate(389,313)"/>
<path d="M0 0 C2.31 0.33 4.62 0.66 7 1 C6.34 2.32 5.68 3.64 5 5 C3.35 5 1.7 5 0 5 C0 3.35 0 1.7 0 0 Z " fill="#181818" transform="translate(395,209)"/>
<path d="M0 0 C-0.33 1.98 -0.66 3.96 -1 6 C-2.32 6.33 -3.64 6.66 -5 7 C-5.33 6.01 -5.66 5.02 -6 4 C-2.25 0 -2.25 0 0 0 Z " fill="#1E1E1E" transform="translate(486,399)"/>
<path d="M0 0 C2.475 0.99 2.475 0.99 5 2 C4.67 2.66 4.34 3.32 4 4 C3.01 4 2.02 4 1 4 C1 4.66 1 5.32 1 6 C-0.32 5.67 -1.64 5.34 -3 5 C-2 3 -2 3 0 0 Z " fill="#222222" transform="translate(195,321)"/>
<path d="M0 0 C3.36591866 1.44253657 5.51047079 3.33264727 8 6 C7.01 6.495 7.01 6.495 6 7 C3.96855359 6.06553465 1.96466413 5.06775224 0 4 C0 2.68 0 1.36 0 0 Z " fill="#242424" transform="translate(156,281)"/>
<path d="M0 0 C0.99 0.33 1.98 0.66 3 1 C2.67 1.33 2.34 1.66 2 2 C2.99 2.66 3.98 3.32 5 4 C4.67 4.66 4.34 5.32 4 6 C2.02 5.34 0.04 4.68 -2 4 C-1.34 2.68 -0.68 1.36 0 0 Z " fill="#252525" transform="translate(253,329)"/>
<path d="M0 0 C1.9375 0.8125 1.9375 0.8125 4 2 C4.33 2.99 4.66 3.98 5 5 C-0.75 4.25 -0.75 4.25 -3 2 C-2.01 1.34 -1.02 0.68 0 0 Z " fill="#343434" transform="translate(243,433)"/>
<path d="M0 0 C-1.25535985 3.76607955 -2.52883585 4.26441793 -6 6 C-6.99 6 -7.98 6 -9 6 C-9 5.34 -9 4.68 -9 4 C-2.25 0 -2.25 0 0 0 Z " fill="#2D2D2D" transform="translate(165,233)"/>
<path d="M0 0 C0.33 1.32 0.66 2.64 1 4 C-4.75 2.25 -4.75 2.25 -7 0 C-4.3333581 -1.33332095 -2.83319697 -0.67102033 0 0 Z " fill="#252525" transform="translate(288,347)"/>
<path d="M0 0 C0.99 1.32 1.98 2.64 3 4 C2.67 4.66 2.34 5.32 2 6 C1.01 6.33 0.02 6.66 -1 7 C-1.33 5.35 -1.66 3.7 -2 2 C-1.34 2 -0.68 2 0 2 C0 1.34 0 0.68 0 0 Z " fill="#212121" transform="translate(483,252)"/>
<path d="M0 0 C1.98 0 3.96 0 6 0 C6.33 0.99 6.66 1.98 7 3 C5.35 3.66 3.7 4.32 2 5 C1.34 3.35 0.68 1.7 0 0 Z " fill="#1A1A1A" transform="translate(323,345)"/>
<path d="M0 0 C0.66 0.33 1.32 0.66 2 1 C0.35 2.65 -1.3 4.3 -3 6 C-3.99 5.01 -4.98 4.02 -6 3 C-4.03533587 1.93224776 -2.03144641 0.93446535 0 0 Z " fill="#E1E1E1" transform="translate(354,335)"/>
<path d="M0 0 C2.31 0 4.62 0 7 0 C6.34 1.32 5.68 2.64 5 4 C3.02 3.34 1.04 2.68 -1 2 C-0.67 1.34 -0.34 0.68 0 0 Z " fill="#1B1B1B" transform="translate(435,289)"/>
<path d="M0 0 C0 1.32 0 2.64 0 4 C-1.32 4.33 -2.64 4.66 -4 5 C-4 4.34 -4 3.68 -4 3 C-4.66 2.67 -5.32 2.34 -6 2 C-2.25 0 -2.25 0 0 0 Z " fill="#212121" transform="translate(229,201)"/>
<path d="M0 0 C3.465 1.485 3.465 1.485 7 3 C6.34 3.66 5.68 4.32 5 5 C2.375 4.625 2.375 4.625 0 4 C0 2.68 0 1.36 0 0 Z " fill="#252525" transform="translate(320,169)"/>
<path d="M0 0 C0.33 1.32 0.66 2.64 1 4 C-0.32 4.99 -1.64 5.98 -3 7 C-3.33 6.34 -3.66 5.68 -4 5 C-2.68 3.35 -1.36 1.7 0 0 Z " fill="#1E1E1E" transform="translate(405,411)"/>
</svg>
